<svg width="207" height="24" viewBox="0 0 207 24" fill="none" xmlns="http://www.w3.org/2000/svg">
<path d="M0.00962301 12.3931C0.00962301 11.952 0.00822876 11.6419 0.00988452 11.3317C0.0140384 10.559 0.198148 10.3894 0.986173 10.4359C3.04108 10.5592 5.03276 11.1926 6.78089 12.2787C8.41275 13.2734 9.62032 14.6722 10.6673 16.2381C11.306 17.116 11.7447 18.1228 11.9526 19.188C11.9661 19.2715 11.9732 19.367 12.0829 19.3765C12.2121 19.3877 12.1887 19.2787 12.2064 19.2022C12.6646 17.2269 13.7123 15.5552 15.0503 14.0827C17.1911 11.7265 19.9304 10.5545 23.1002 10.349C23.673 10.3119 23.8803 10.4635 23.9629 11.0375C24.0863 11.8945 23.9475 12.753 23.9278 13.6112C23.8382 17.5242 19.7594 23.0797 13.9215 23.8728C13.3845 23.9458 12.8469 23.929 12.3102 23.9604C10.7874 24.0992 9.25304 23.8889 7.82397 23.3455C3.69276 21.6464 1.10855 18.6393 0.14647 14.2836C0.0240649 13.6613 -0.0218902 13.0265 0.00962301 12.3931Z" fill="white"/>
<path d="M119.134 9.07118C118.51 8.60607 117.797 8.27368 117.039 8.09451C116.281 7.91533 115.494 7.89316 114.727 8.02938C112.435 8.38367 110.7 9.44755 109.79 11.6518C109.299 12.8374 109.273 14.0744 109.394 15.3144C109.446 16.0858 109.667 16.8362 110.043 17.5123C110.418 18.1883 110.938 18.7733 111.566 19.2256C112.169 19.6945 112.861 20.0354 113.601 20.2272C114.34 20.4189 115.111 20.4576 115.866 20.3408C116.696 20.2484 117.505 20.0156 118.257 19.6524C120.512 18.4476 121.36 16.4497 121.434 14.325C121.447 11.9749 120.625 10.1612 119.134 9.07118ZM118.223 14.0625C118.257 15.0092 118.044 15.9485 117.605 16.7881C117.034 17.8519 115.415 18.3803 114.592 18.1036C114.034 17.9249 113.56 17.5488 113.259 17.0457C112.751 16.2601 112.463 15.3522 112.426 14.4173C112.389 13.4823 112.605 12.5546 113.05 11.7314C113.266 11.2571 113.621 10.8588 114.066 10.5882C114.512 10.3175 115.029 10.1871 115.551 10.2137C116.791 10.2641 117.572 11.0652 117.947 12.2318C118.141 12.8222 118.235 13.441 118.223 14.0624L118.223 14.0625Z" fill="white"/>
<path d="M52.0988 8.64321C48.3962 7.40018 43.5974 9.34876 43.674 14.6429C43.6341 15.93 44.0224 17.194 44.7782 18.2371C46.6209 20.9768 51.1598 21.6733 53.8558 19.1017C55.0155 17.9945 55.5555 16.5834 55.7208 15.0143C55.9877 12.4779 54.7485 9.53294 52.0988 8.64321ZM51.3925 17.7771C50.9359 18.2159 50.3256 18.4588 49.6921 18.454C49.0585 18.4491 48.452 18.1968 48.0022 17.751C47.3369 17.0759 46.9218 16.1944 46.8255 15.2519C46.6948 14.2686 46.824 13.2682 47.2002 12.3502C47.3855 11.8352 47.7177 11.3856 48.1558 11.057C48.5939 10.7285 49.1188 10.5353 49.6656 10.5013C50.7123 10.4902 51.7591 11.2511 52.1853 12.3331C52.4533 13.0671 52.5817 13.8447 52.5642 14.6259C52.53 15.7078 52.3214 16.8663 51.3925 17.7771Z" fill="white"/>
<path d="M88.1683 10.0997C88.9194 9.18198 89.7086 8.524 90.7737 8.25371C91.8633 7.95787 93.0247 8.08568 94.0236 8.6114C95.4651 9.34619 96.1023 10.5968 96.1509 12.0937C96.2346 14.6706 96.1785 17.2522 96.1831 19.8318C96.1834 19.9976 96.1905 20.1427 95.9491 20.1225C95.1589 20.0561 94.377 20.2242 93.5868 20.2148C93.2781 20.2111 93.1825 20.1502 93.1852 19.8243C93.2022 17.8228 93.1922 15.821 93.1948 13.8194C93.2042 13.3542 93.156 12.8897 93.0512 12.4363C92.7568 11.2589 92.0537 10.6189 91.0336 10.6002C90.4993 10.596 89.9776 10.7619 89.544 11.0738C89.1105 11.3858 88.7876 11.8275 88.6221 12.335C88.5171 12.7306 88.4738 13.14 88.4935 13.5487C88.4932 15.6209 88.4853 17.6932 88.5013 19.7652C88.5039 20.1063 88.4294 20.227 88.0653 20.2139C87.2726 20.1855 86.4779 20.1967 85.6844 20.2102C85.4433 20.2143 85.3722 20.1427 85.3727 19.9015C85.3796 16.1659 85.3798 12.4304 85.3732 8.69489C85.3728 8.46399 85.4251 8.37176 85.6771 8.37748C86.3713 8.39329 87.0662 8.39198 87.7604 8.37803C87.9992 8.37327 88.0824 8.4491 88.0871 8.6868C88.0957 9.12133 88.135 9.55537 88.1683 10.0997Z" fill="white"/>
<path d="M141.516 10.1078C139.821 7.39834 136.362 7.22622 133.885 9.00873C133.874 9.01679 133.862 9.02486 133.851 9.03391C133.18 9.58774 132.628 10.2711 132.227 11.0431C131.826 11.8151 131.586 12.6599 131.52 13.5269C131.39 15.1091 131.571 16.644 132.534 17.9645C133.553 19.3615 134.958 20.046 136.711 20.1718C138.352 20.297 140.001 20.1035 141.568 19.6021C141.781 19.5346 141.846 19.4652 141.786 19.2327C141.656 18.7427 141.555 18.2457 141.482 17.744C141.44 17.439 141.352 17.3948 141.057 17.4773C139.555 17.896 138.057 18.0902 136.492 17.7078C135.946 17.5486 135.461 17.2276 135.101 16.787C134.742 16.3465 134.525 15.8073 134.48 15.2409C134.472 15.0547 134.567 15.0295 134.712 15.0345C135.446 15.0627 136.176 14.9862 136.908 14.957C137.715 14.9258 138.524 14.95 139.332 14.95C140.225 14.95 141.118 14.9369 142.012 14.958C142.303 14.9641 142.393 14.8735 142.423 14.5927C142.593 13.0005 142.397 11.5139 141.516 10.1078ZM139.34 12.8233C138.859 12.8153 138.378 12.8213 137.732 12.8213C136.88 12.7388 135.872 12.9441 134.855 12.9149C134.522 12.9059 134.456 12.8224 134.51 12.4992C134.594 11.9825 134.803 11.494 135.119 11.0761C135.435 10.6582 135.848 10.3235 136.322 10.1008C137.244 9.61264 138.606 10.0927 139.174 11.0348C139.439 11.5016 139.587 12.0254 139.606 12.5617C139.621 12.7791 139.535 12.8274 139.34 12.8233Z" fill="white"/>
<path d="M73.6257 11.1394C73.5474 10.651 73.3975 10.1767 73.1811 9.73173C73.1402 9.65913 73.1163 9.57818 73.1113 9.495C73.1062 9.41183 73.1202 9.3286 73.1521 9.25161C73.184 9.17462 73.2331 9.10588 73.2955 9.0506C73.3579 8.99532 73.4321 8.95495 73.5124 8.93252C75.5253 8.0757 77.5829 7.72979 79.7007 8.52593C81.2012 9.09007 81.9695 10.2181 82.1425 11.7877C82.224 12.8278 82.234 13.8722 82.1726 14.9137C82.154 15.6072 81.7234 15.9467 81.0206 15.8715C80.5558 15.805 80.1218 15.6004 79.775 15.2842C79.2583 14.8556 78.6146 14.609 77.9436 14.5825C77.2725 14.5561 76.6114 14.7511 76.0624 15.1377C75.6852 15.3703 75.4089 15.7357 75.2882 16.1618C75.1674 16.5879 75.2109 17.0437 75.4101 17.4393C75.5219 17.7007 75.7109 17.9218 75.9519 18.073C76.1928 18.2243 76.4742 18.2985 76.7584 18.2857C77.6678 18.288 78.3784 18.0335 78.9233 17.2299C79.0591 17.0163 79.2371 16.8327 79.4464 16.6902C79.6557 16.5477 79.8919 16.4493 80.1406 16.4011C80.3892 16.353 80.6451 16.3559 80.8925 16.4099C81.14 16.4639 81.3738 16.5678 81.5797 16.7151C81.7898 16.833 81.9661 17.0028 82.0918 17.2082C82.2175 17.4135 82.2884 17.6477 82.2977 17.8882C82.3346 18.5349 82.3996 19.1805 82.4712 19.8246C82.502 20.1009 82.459 20.2269 82.1314 20.2145C81.4378 20.1884 80.7423 20.196 80.0481 20.2122C79.801 20.218 79.7045 20.1543 79.6737 19.8963C79.5699 19.026 79.5638 19.0343 78.8847 19.5367C77.3912 20.6415 75.8051 20.7954 74.0848 20.0706C72.2555 19.2998 71.8185 16.8949 72.574 15.3842C73.3316 13.8694 74.6217 13.1222 76.2153 12.7746C77.1273 12.5675 78.0585 12.4558 78.9937 12.4413C79.2421 12.4395 79.2958 12.373 79.2712 12.1282C79.1666 11.0882 78.4572 10.4085 77.3185 10.3172C76.1551 10.2034 74.9844 10.4439 73.9603 11.0071C73.8988 11.0414 73.8355 11.0725 73.7708 11.1002C73.7233 11.1163 73.6748 11.1294 73.6257 11.1394Z" fill="white"/>
<path d="M42.9195 8.55283C42.3784 9.97895 41.8555 11.3576 41.3321 12.736C40.9226 13.8145 40.4479 14.8737 40.1195 15.9761C39.7261 17.2964 39.1387 18.5434 38.7429 19.8586C38.7138 20.0264 38.6209 20.1763 38.4835 20.277C38.3461 20.3777 38.1751 20.4214 38.0062 20.3987C37.2978 20.3773 36.5885 20.3735 35.8797 20.3806C35.7534 20.3934 35.6268 20.3597 35.5236 20.2857C35.4205 20.2117 35.3481 20.1026 35.32 19.9789C34.8412 18.6562 34.4079 17.3124 33.8414 16.0271C32.8944 13.8783 32.2357 11.6229 31.2974 9.4726C30.9227 8.61364 30.982 8.5544 31.9206 8.55304C32.6296 8.55199 33.3386 8.55884 34.0474 8.54924C34.2592 8.54634 34.3564 8.58911 34.421 8.82547C35.044 11.1059 35.8008 13.3461 36.5612 15.5833C36.7442 16.0651 36.8889 16.5605 36.994 17.065C37.0072 17.1415 36.9921 17.2536 37.1054 17.2637C37.2564 17.2772 37.2387 17.1379 37.2535 17.0538C37.7516 14.232 38.8892 11.5939 39.6317 8.84268C39.6876 8.63531 39.7608 8.54346 39.9958 8.54697C40.9455 8.56116 41.8953 8.55283 42.9195 8.55283Z" fill="white"/>
<path d="M0.364868 8.6986C0.825552 7.13991 1.60049 5.69183 2.64205 4.44338C3.68361 3.19492 4.96977 2.17248 6.42146 1.43891C7.57046 0.861014 8.79505 0.447273 10.0593 0.20983C15.4505 -0.895133 21.236 2.47544 23.205 7.69677C23.5529 8.61935 23.5608 8.61317 22.5788 8.70173C22.1713 8.7385 21.6828 8.94776 21.3832 8.79103C21.1162 8.65139 21.0747 8.10777 20.9068 7.75504C19.091 3.94221 15.0007 1.59793 10.7573 2.23685C6.89214 2.8188 4.09126 4.96052 2.65112 8.67733C2.60003 8.80925 2.59614 8.94065 2.37807 8.89733C2.0459 8.83137 1.7051 8.80533 1.36698 8.77283C1.04512 8.74207 0.722018 8.72454 0.364868 8.6986Z" fill="white"/>
<path d="M105.179 20.4373C103.388 20.446 102.063 20.0671 100.876 19.2411C100.286 18.836 99.7886 18.3095 99.4185 17.6968C99.0483 17.0842 98.8134 16.3997 98.7296 15.689C98.5637 14.5303 98.5229 13.3584 98.9256 12.2216C99.7724 9.83041 101.54 8.55121 103.984 8.12222C105.257 7.8719 106.575 7.98447 107.787 8.44706C108.057 8.55368 108.203 8.65287 108.093 8.99262C107.944 9.49148 107.821 9.99777 107.725 10.5094C107.666 10.7855 107.572 10.8832 107.271 10.7652C106.436 10.4344 105.525 10.3458 104.642 10.5098C102.746 10.852 101.611 12.3237 101.739 14.2769C101.76 14.6991 101.828 15.1176 101.942 15.5249C102.45 17.2515 103.852 18.1774 105.647 17.9764C106.238 17.9105 106.822 17.7952 107.393 17.6318C107.619 17.5673 107.739 17.5673 107.779 17.8642C107.858 18.4347 107.983 19.0001 108.116 19.5612C108.16 19.7482 108.111 19.8104 107.947 19.8595C106.929 20.1631 105.914 20.4797 105.179 20.4373Z" fill="white"/>
<path d="M144.852 15.3253C144.852 14.0427 144.905 12.7575 144.841 11.4782C144.701 8.70665 144.813 5.93491 144.758 3.16416C144.751 2.7982 144.832 2.67954 145.219 2.69696C145.982 2.73152 146.749 2.72153 147.514 2.70006C147.82 2.69135 147.889 2.79292 147.888 3.08238C147.878 5.68973 147.807 8.29983 147.902 10.9038C148.006 13.7611 147.909 16.6164 147.975 19.4716C147.984 19.8542 147.887 19.9806 147.488 19.9623C146.753 19.9286 146.014 19.9318 145.278 19.9615C144.911 19.9763 144.839 19.8506 144.844 19.5111C144.863 18.1161 144.852 16.7206 144.852 15.3253Z" fill="white"/>
<path d="M154.084 7.48345C154.084 8.77976 154.031 10.0787 154.095 11.3719C154.229 14.0736 154.125 16.7755 154.178 19.4766C154.185 19.867 154.076 19.979 153.686 19.9622C152.951 19.9306 152.212 19.9369 151.476 19.9605C151.15 19.9709 151.048 19.8905 151.05 19.5477C151.066 17.1524 151.127 14.7546 151.041 12.3623C150.932 9.29532 151.023 6.22974 150.965 3.1643C150.959 2.80136 151.035 2.67869 151.424 2.69709C152.173 2.73269 152.926 2.72802 153.675 2.69848C154.03 2.68449 154.094 2.81276 154.09 3.1295C154.076 4.58075 154.084 6.03214 154.084 7.48345Z" fill="white"/>
<path d="M126.547 10.3545C126.713 10.0617 126.858 9.7549 127.048 9.47835C127.8 8.38432 128.791 7.77332 130.179 8.00008C130.301 8.0201 130.427 7.9955 130.45 8.1858C130.526 9.00934 130.554 9.83667 130.533 10.6635C130.533 10.9201 130.38 10.8808 130.218 10.8474C129.761 10.7413 129.284 10.7521 128.832 10.879C127.672 11.2255 126.902 12.3451 126.893 13.7581C126.88 15.6885 126.874 17.6193 126.9 19.5494C126.906 19.9742 126.779 20.0637 126.382 20.0444C125.689 20.0107 124.993 20.0105 124.3 20.0444C123.899 20.064 123.777 19.9636 123.779 19.5438C123.797 16.162 123.79 12.7801 123.788 9.39819C123.788 9.18713 123.785 8.97498 123.764 8.76526C123.708 8.2118 123.704 8.21218 124.246 8.21218C124.812 8.21218 125.38 8.22556 125.946 8.20655C126.231 8.19698 126.352 8.247 126.399 8.57634C126.483 9.16308 126.437 9.74987 126.547 10.3545Z" fill="white"/>
<path d="M60.8639 10.6181C60.982 10.3984 61.0972 10.177 61.2188 9.95934C61.5311 9.36763 62.0176 8.88587 62.6127 8.57905C63.2077 8.27223 63.8826 8.15512 64.5464 8.24352C64.7681 8.26706 64.8637 8.31317 64.8583 8.56026C64.8415 9.32129 64.8433 10.083 64.8571 10.8441C64.8617 11.1003 64.7836 11.1633 64.5375 11.1027C62.9116 10.7023 61.3095 11.7766 61.225 13.8881C61.1551 15.6337 61.1992 17.3843 61.2147 19.1325C61.2173 19.4192 61.2977 19.7067 61.2972 20.0015C61.2969 20.2143 61.2466 20.2964 61.0145 20.2926C60.1924 20.2792 59.3697 20.2757 58.5479 20.2939C58.2665 20.3001 58.2051 20.2155 58.1928 19.9404C58.0711 17.2113 58.1791 14.4813 58.1452 11.7521C58.1329 10.765 58.135 9.77747 58.0433 8.79416C58.0189 8.53299 58.0746 8.45095 58.3483 8.4589C59.0141 8.47826 59.6813 8.48096 60.3468 8.45803C60.6443 8.44776 60.6929 8.5657 60.6976 8.82368C60.7083 9.41346 60.7514 10.0026 60.7814 10.5921L60.8639 10.6181Z" fill="white"/>
<path d="M69.877 14.3822C69.877 16.2287 69.8701 18.0752 69.8841 19.9216C69.8863 20.2179 69.8089 20.3033 69.509 20.2949C68.7301 20.2732 67.9499 20.2758 67.1708 20.2933C66.8496 20.3005 66.762 20.1832 66.7627 19.8741C66.7715 16.1953 66.7714 12.5165 66.7623 8.8377C66.7616 8.54623 66.8357 8.45026 67.1387 8.45824C67.9318 8.47919 68.7264 8.48103 69.5193 8.45755C69.8348 8.44824 69.8848 8.56339 69.883 8.84293C69.8714 10.6893 69.877 12.5358 69.877 14.3822Z" fill="white"/>
<path d="M157.365 16.2401C157.365 15.1133 157.435 13.9811 157.347 12.8612C157.232 11.3995 157.337 9.9408 157.273 8.4827C157.258 8.13447 157.352 8.02301 157.713 8.03618C158.491 8.06454 159.271 8.05723 160.049 8.03845C160.336 8.03155 160.405 8.12687 160.402 8.39875C160.363 12.0837 160.543 15.7671 160.49 19.4526C160.486 19.7805 160.411 19.8873 160.069 19.876C159.277 19.8499 158.483 19.8568 157.691 19.8738C157.422 19.8796 157.357 19.7899 157.36 19.5358C157.372 18.4374 157.365 17.3387 157.365 16.2401Z" fill="white"/>
<path d="M19.3718 9.24225C19.39 9.30394 19.3699 9.37878 19.2355 9.40452C18.7282 9.50174 18.2995 9.80011 17.8165 9.95931C17.6198 10.0241 17.4791 10.0406 17.3732 9.76256C16.5589 7.6255 14.8819 6.57106 12.7094 6.17321C12.2499 6.07462 11.7757 6.06587 11.3128 6.14744C9.0905 6.60594 7.3826 7.72994 6.49549 9.88583C6.41982 10.0697 6.33915 10.1012 6.18632 10.0421C5.64602 9.83302 5.11034 9.61154 4.56754 9.40905C4.37524 9.33728 4.47958 9.24703 4.52124 9.15304C5.60271 6.71238 7.42286 5.1798 10.0001 4.35635C13.0449 3.38351 16.9351 4.85241 18.8168 7.91735C19.0895 8.31696 19.2784 8.76767 19.3718 9.24225Z" fill="white"/>
<path d="M11.9088 8.22283C12.7146 8.21504 13.5019 8.46464 14.1557 8.93524C14.8095 9.40584 15.2957 10.0728 15.5434 10.8389C15.5938 10.9381 15.6056 11.0525 15.5767 11.1599C15.5478 11.2674 15.4802 11.3604 15.3868 11.4211C14.6245 12.0701 13.9125 12.7759 13.2571 13.5325C12.8415 13.938 12.5042 14.4164 12.2618 14.9438C12.2305 15.0186 12.2157 15.1139 12.1102 15.1264C12.007 15.1387 11.9744 15.0667 11.9277 14.9883C11.0673 13.5929 9.91448 12.4004 8.54857 11.4928C8.49642 11.4677 8.44994 11.4323 8.41198 11.3887C8.37401 11.345 8.34536 11.2941 8.32778 11.2391C8.31019 11.184 8.30405 11.1259 8.30973 11.0684C8.3154 11.0108 8.33277 10.9551 8.36078 10.9045C8.68887 9.93057 9.38488 9.12326 10.3004 8.65473C10.797 8.39142 11.3469 8.24377 11.9088 8.22283Z" fill="white"/>
<path d="M157.083 4.7561C157.08 3.80892 157.794 3.14934 158.823 3.14844C159.792 3.14754 160.488 3.73773 160.497 4.56687C160.508 5.66466 159.835 6.42174 158.851 6.41951C158.625 6.42846 158.4 6.39231 158.188 6.31317C157.976 6.23403 157.782 6.1135 157.617 5.95861C157.453 5.80372 157.321 5.61759 157.229 5.41111C157.137 5.20464 157.088 4.98196 157.083 4.7561Z" fill="white"/>
<path d="M68.2311 3.58621C69.4286 3.65951 70.1666 4.30406 70.1004 5.21894C70.0835 5.44824 70.0215 5.67194 69.9178 5.87722C69.8142 6.08251 69.671 6.26533 69.4965 6.41519C69.3219 6.56505 69.1195 6.679 68.9008 6.7505C68.682 6.822 68.4513 6.84965 68.2219 6.83185C67.2381 6.77535 66.5884 5.989 66.6612 4.94271C66.7093 4.56298 66.8962 4.21442 67.186 3.96402C67.4758 3.71362 67.848 3.57907 68.2311 3.58621Z" fill="white"/>
<path d="M169.977 10.9805H171.657L174.789 19.5005H173.085L172.293 17.3765H169.317L168.537 19.5005H166.833L169.977 10.9805ZM171.993 16.2125L170.817 12.6965L169.593 16.2125H171.993Z" fill="#F3BC09"/>
<path d="M175.875 19.5005V10.9805H178.971C179.899 10.9805 180.675 11.1725 181.299 11.5565C181.923 11.9325 182.391 12.4445 182.703 13.0925C183.015 13.7325 183.171 14.4445 183.171 15.2285C183.171 16.0925 182.999 16.8445 182.655 17.4845C182.311 18.1245 181.823 18.6205 181.191 18.9725C180.567 19.3245 179.827 19.5005 178.971 19.5005H175.875ZM181.503 15.2285C181.503 14.6765 181.403 14.1925 181.203 13.7765C181.003 13.3525 180.715 13.0245 180.339 12.7925C179.963 12.5525 179.507 12.4325 178.971 12.4325H177.531V18.0485H178.971C179.515 18.0485 179.975 17.9285 180.351 17.6885C180.727 17.4405 181.011 17.1045 181.203 16.6805C181.403 16.2485 181.503 15.7645 181.503 15.2285Z" fill="#F3BC09"/>
<path d="M191.564 19.5005V13.9085L189.38 18.0725H188.456L186.272 13.9085V19.5005H184.616V10.9805H186.392L188.912 15.8285L191.456 10.9805H193.22V19.5005H191.564Z" fill="#F3BC09"/>
<path d="M195.151 19.5005V10.9805H196.807V19.5005H195.151Z" fill="#F3BC09"/>
<path d="M200.392 14.0285V19.5005H198.736V10.9805H200.056L204.46 16.5965V10.9925H206.116V19.5005H204.736L200.392 14.0285Z" fill="#F3BC09"/>
</svg>
